<?xml version="1.0" standalone="no"?><svg xmlns="http://www.w3.org/2000/svg" viewBox="0 0 1440 320"><path fill="#F3F4F5" fill-opacity="0.8" d="M0,160L40,133.3C80,107,160,53,240,37.3C320,21,400,43,480,90.7C560,139,640,213,720,218.7C800,224,880,160,960,154.7C1040,149,1120,203,1200,213.3C1280,224,1360,192,1400,176L1440,160L1440,320L1400,320C1360,320,1280,320,1200,320C1120,320,1040,320,960,320C880,320,800,320,720,320C640,320,560,320,480,320C400,320,320,320,240,320C160,320,80,320,40,320L0,320Z"></path></svg>